<!--?xml version="1.0" standalone="no"?-->
              <svg id="sw-js-blob-svg" viewBox="0 0 100 100" xmlns="http://www.w3.org/2000/svg" version="1.1">
                    <defs> 
                        <linearGradient id="sw-gradient" x1="0" x2="1" y1="1" y2="0">
                            <stop id="stop1" stop-color="rgba(255, 204, 0, 1)" offset="0%"></stop>
                            <stop id="stop2" stop-color="rgba(255, 204, 0, 1)" offset="100%"></stop>
                        </linearGradient>
                    </defs>
                <path fill="rgba(255, 204, 0, 1)" d="M19.3,-25.7C26.9,-21,36.4,-17.9,40.7,-11.6C45.1,-5.2,44.4,4.5,41.2,13.1C38.1,21.8,32.5,29.5,25.2,29.4C18,29.4,9,21.8,1.1,20.3C-6.8,18.8,-13.7,23.5,-18,22.5C-22.2,21.6,-24,15,-22.8,9.5C-21.7,4.1,-17.6,-0.1,-17.5,-7.3C-17.3,-14.4,-21.2,-24.4,-18.9,-30.9C-16.7,-37.4,-8.3,-40.4,-1.3,-38.6C5.8,-36.9,11.6,-30.5,19.3,-25.7Z" width="100%" height="100%" transform="translate(50 50)" stroke-width="0" style="transition: 0.3s;"></path>
              </svg>